<svg width="50" height="50" viewBox="0 0 50 50" fill="none" xmlns="http://www.w3.org/2000/svg">
<path d="M44.8423 14.8231C44.8621 15.2627 44.8721 15.7043 44.8721 16.1479C44.8721 29.6773 34.5731 45.2772 15.7437 45.2772C9.96162 45.2772 4.57949 43.5822 0.0488281 40.6772C0.850781 40.7723 1.66465 40.8208 2.49141 40.8208C7.28838 40.8208 11.7021 39.1842 15.2071 36.4376C10.726 36.3555 6.9458 33.3952 5.64287 29.3278C6.26865 29.4477 6.90928 29.512 7.56963 29.512C8.50225 29.512 9.40713 29.3863 10.2666 29.1526C5.5835 28.2119 2.05371 24.0744 2.05371 19.1141C2.05371 19.0705 2.05371 19.0279 2.05479 18.9854C3.43496 19.7517 5.01318 20.2121 6.69229 20.2655C3.94482 18.43 2.13789 15.2963 2.13789 11.7438C2.13789 9.86768 2.6418 8.10928 3.52393 6.59736C8.57344 12.7913 16.1158 16.8665 24.6247 17.2942C24.4505 16.5447 24.3593 15.7636 24.3593 14.9606C24.3593 9.30723 28.9434 4.72314 34.5968 4.72314C37.5434 4.72314 40.2026 5.9667 42.0699 7.95576C44.4026 7.49736 46.5927 6.64492 48.5708 5.47158C47.8064 7.8627 46.1847 9.86855 44.0699 11.1358C46.1411 10.8883 48.1154 10.3379 49.951 9.52402C48.5788 11.5766 46.8423 13.3795 44.8423 14.8231Z" fill="white"/>
</svg>
